<?xml version="1.0" standalone="no"?>
<!DOCTYPE svg PUBLIC "-//W3C//DTD SVG 20010904//EN"
 "http://www.w3.org/TR/2001/REC-SVG-20010904/DTD/svg10.dtd">
<svg version="1.0" xmlns="http://www.w3.org/2000/svg"
 width="644.000000pt" height="644.000000pt" viewBox="0 0 644.000000 644.000000"
 preserveAspectRatio="xMidYMid meet">
<metadata>
Created by potrace 1.14, written by Peter Selinger 2001-2017
</metadata>
<g transform="translate(0.000000,644.000000) scale(0.100000,-0.100000)"
fill="#000000" stroke="none">
<path d="M230 4336 c0 -16 183 -118 278 -155 26 -10 56 -21 67 -26 11 -4 25
-9 30 -11 6 -1 48 -14 95 -28 92 -27 326 -80 401 -90 25 -4 57 -9 70 -11 159
-26 319 -41 539 -50 63 -3 167 -7 230 -10 63 -3 153 -8 198 -10 46 -2 86 -6
89 -8 2 -3 -5 -36 -16 -73 -79 -269 -74 -499 15 -689 36 -78 110 -187 169
-250 l47 -50 -40 80 c-88 180 -123 323 -118 485 2 58 6 114 9 125 32 125 62
194 123 286 25 36 73 97 108 135 35 38 63 70 62 70 0 1 -208 5 -461 8 -253 3
-473 8 -490 10 -16 2 -79 8 -140 12 -60 4 -112 8 -115 9 -3 1 -41 5 -85 9
-272 26 -623 97 -855 171 -42 13 -87 26 -100 29 -14 2 -42 11 -62 20 -39 17
-48 19 -48 12z"/>
<path d="M6060 4329 c-24 -10 -92 -31 -295 -89 -55 -16 -158 -41 -230 -55
-161 -33 -151 -31 -205 -40 -25 -4 -54 -9 -65 -11 -11 -2 -72 -10 -135 -18
-114 -15 -173 -21 -300 -31 -36 -3 -92 -7 -125 -10 -33 -3 -262 -8 -510 -11
-247 -4 -452 -8 -454 -10 -2 -1 18 -24 44 -51 138 -139 228 -309 252 -473 15
-103 2 -267 -28 -357 -6 -19 -12 -40 -13 -46 -1 -7 -7 -21 -13 -32 -6 -11 -16
-37 -22 -57 -7 -21 -24 -59 -37 -84 -42 -79 -21 -64 67 46 68 87 118 182 151
290 20 64 23 96 22 220 -1 144 -16 248 -58 383 -14 43 -14 47 2 48 21 2 59 4
272 13 248 10 511 26 540 31 8 1 44 6 80 9 36 4 90 11 120 16 30 5 75 12 100
15 201 26 514 115 680 193 134 63 266 154 160 111z"/>
<path d="M3088 4204 c-2 -1 -28 -5 -58 -9 -234 -28 -473 -204 -589 -432 -85
-168 -103 -387 -46 -563 24 -76 81 -194 109 -228 6 -7 29 -34 51 -60 85 -103
211 -185 350 -231 102 -33 152 -41 257 -42 549 -3 937 528 757 1038 -48 136
-107 223 -220 327 -105 95 -263 171 -399 192 -45 7 -207 13 -212 8z m228 -60
c145 -29 309 -123 405 -232 120 -136 180 -287 184 -464 4 -191 -54 -347 -190
-506 -11 -13 -47 -46 -80 -72 -176 -140 -403 -196 -619 -151 -400 82 -654 440
-589 830 68 408 474 679 889 595z"/>
<path d="M2831 3939 c-177 -70 -227 -290 -93 -411 l37 -33 -49 -24 c-73 -36
-122 -90 -144 -161 -2 -8 -6 -44 -7 -79 -5 -106 40 -199 123 -252 59 -37 112
-52 184 -50 121 2 227 68 269 165 24 56 39 70 39 39 0 -28 55 -108 94 -138
127 -97 322 -87 424 22 59 62 76 108 76 203 1 71 -3 93 -24 133 -26 53 -77 98
-135 123 l-36 15 45 50 c81 90 87 198 18 298 -51 75 -117 111 -214 118 -64 4
-80 2 -128 -21 -64 -30 -105 -33 -118 -9 -9 16 -11 16 -27 0 -22 -23 -57 -21
-108 4 -61 32 -157 35 -226 8z m210 -14 c57 -29 85 -70 137 -195 10 -24 11
-24 11 -3 1 33 31 103 59 141 51 68 153 96 240 68 57 -19 83 -44 111 -106 39
-85 18 -167 -59 -233 -38 -33 -131 -77 -162 -77 -6 0 -34 -14 -63 -30 -56 -32
-109 -85 -120 -119 -9 -30 -17 -26 -47 24 -29 48 -109 106 -173 125 -214 63
-294 216 -188 358 50 66 172 89 254 47z m-208 -466 c23 -12 70 -32 105 -45 92
-33 129 -61 159 -122 22 -44 25 -62 20 -110 -14 -147 -102 -235 -237 -236
-135 0 -251 75 -281 183 -35 126 -4 235 86 303 43 32 59 40 98 47 4 0 27 -9
50 -20z m792 2 c97 -44 145 -119 146 -226 2 -179 -115 -292 -296 -289 -73 1
-130 28 -174 81 -57 68 -78 190 -45 259 24 50 96 109 151 125 26 7 72 25 103
40 66 33 65 33 115 10z"/>
<path d="M5870 4064 c-118 -33 -327 -79 -494 -108 -207 -37 -191 -35 -351 -51
-33 -4 -67 -8 -75 -10 -8 -2 -55 -7 -105 -10 -49 -4 -97 -8 -105 -10 -18 -4
-259 -21 -375 -25 -75 -3 2 -19 195 -40 80 -8 481 -5 540 5 19 3 78 12 130 21
237 39 674 183 719 237 7 10 12 17 10 16 -2 -1 -42 -12 -89 -25z"/>
<path d="M445 4036 c81 -40 260 -107 340 -127 16 -4 62 -16 100 -27 39 -11 97
-25 130 -31 33 -6 69 -13 80 -15 11 -2 45 -7 75 -11 30 -4 66 -10 80 -12 14
-2 120 -6 235 -7 229 -4 335 3 486 33 49 10 55 9 -71 15 -139 8 -299 18 -325
21 -16 2 -61 6 -100 10 -38 4 -83 8 -100 10 -16 2 -51 7 -77 10 -122 13 -151
18 -263 36 -66 11 -133 22 -150 25 -16 2 -50 9 -75 15 -25 5 -54 11 -65 13
-58 12 -177 39 -228 52 -161 42 -173 41 -72 -10z"/>
<path d="M510 3863 c0 -7 197 -98 276 -128 111 -42 282 -82 429 -100 51 -6
326 -7 380 -1 102 11 328 60 380 82 26 11 17 12 -65 6 -194 -14 -627 -6 -725
13 -11 2 -47 7 -80 10 -100 10 -112 12 -345 60 -69 14 -131 28 -138 30 -7 3
-13 4 -15 4 -1 0 -23 7 -49 15 -27 8 -48 12 -48 9z"/>
<path d="M5720 3843 c-114 -31 -346 -79 -450 -92 -135 -18 -153 -20 -247 -28
-101 -9 -549 -9 -638 0 -43 4 -55 3 -42 -4 10 -6 28 -12 40 -13 13 -1 27 -5
32 -8 6 -3 26 -9 45 -14 19 -4 40 -9 45 -10 126 -32 242 -45 415 -44 146 0
215 5 300 21 74 14 291 70 310 80 8 4 34 15 58 23 34 13 205 92 221 103 17 12
-17 6 -89 -14z"/>
<path d="M5738 3664 c-15 -14 -296 -84 -405 -100 -21 -3 -45 -7 -53 -9 -102
-27 -567 -26 -718 1 -14 3 -50 7 -81 9 -31 2 -76 7 -101 10 -42 6 -43 5 -20
-7 30 -16 86 -35 120 -42 14 -3 56 -14 94 -25 38 -11 88 -23 110 -27 22 -3 43
-7 46 -9 13 -8 183 -20 280 -20 175 1 302 22 455 75 93 33 258 114 277 137 10
13 7 19 -4 7z"/>
<path d="M605 3643 c17 -10 33 -16 38 -15 4 1 7 -2 7 -7 0 -22 272 -131 365
-147 61 -10 101 -17 120 -21 54 -11 283 -9 380 3 120 15 361 72 440 104 l50
21 -50 -5 c-27 -3 -79 -8 -115 -12 -36 -3 -76 -7 -90 -10 -192 -30 -584 -25
-767 10 -10 2 -47 9 -83 16 -36 7 -120 28 -187 46 -137 38 -151 40 -108 17z"/>
<path d="M5718 3455 c-10 -10 -367 -94 -453 -106 -187 -26 -495 -13 -730 31
-27 5 -63 12 -80 15 -16 2 -43 7 -60 11 -55 11 -13 -13 85 -49 209 -77 375
-110 555 -109 194 0 382 45 570 137 82 39 139 74 124 75 -3 0 -8 -2 -11 -5z"/>
<path d="M618 3437 c7 -8 25 -18 40 -22 15 -4 34 -12 42 -19 43 -37 275 -114
410 -137 237 -39 575 17 840 139 25 12 25 12 -5 8 -16 -2 -86 -14 -155 -25
-314 -53 -516 -60 -772 -26 -46 6 -329 72 -393 92 -17 5 -18 4 -7 -10z"/>
<path d="M1870 3110 c-28 -9 -28 -9 50 -16 87 -8 178 -60 325 -184 234 -199
341 -271 426 -286 l34 -6 -40 22 c-81 45 -193 140 -349 296 -60 60 -157 132
-206 154 -58 25 -187 36 -240 20z"/>
<path d="M4284 3111 c-87 -21 -146 -65 -364 -272 -128 -121 -177 -161 -246
-198 l-39 -22 35 7 c72 12 222 106 325 201 17 15 57 51 90 78 175 146 232 178
335 189 25 2 52 5 60 6 8 1 4 5 -10 9 -33 10 -147 11 -186 2z"/>
<path d="M1944 2935 c-57 -29 -72 -103 -29 -149 53 -57 151 -12 121 57 -9 20
-47 22 -76 5 -10 -7 -23 -9 -27 -5 -11 12 10 40 41 56 26 12 33 10 87 -18 32
-17 97 -56 144 -86 47 -30 90 -55 95 -55 6 0 10 -3 10 -8 0 -7 50 -35 83 -46
34 -11 15 10 -46 49 -34 23 -116 77 -182 122 -131 89 -171 103 -221 78z"/>
<path d="M4282 2935 c-18 -8 -99 -59 -180 -115 -168 -114 -182 -125 -182 -133
0 -12 52 14 133 66 177 116 233 147 276 154 18 2 80 -59 64 -64 -7 -3 -21 0
-32 6 -28 15 -57 14 -75 -4 -29 -29 10 -85 59 -85 97 0 121 138 31 175 -43 18
-52 18 -94 0z"/>
<path d="M2105 2651 c-45 -11 -69 -27 -104 -66 -35 -40 -38 -53 -14 -62 10 -4
23 2 37 19 32 39 71 59 113 60 49 0 89 -16 105 -42 16 -25 34 -26 47 -2 10 20
-18 61 -56 81 -30 15 -91 21 -128 12z"/>
<path d="M4114 2645 c-34 -15 -74 -59 -74 -80 0 -23 33 -27 50 -6 48 63 171
55 216 -14 18 -28 54 -34 54 -10 0 76 -163 148 -246 110z"/>
<path d="M2834 2522 c-6 -4 -18 -27 -28 -52 -10 -25 -24 -58 -31 -75 -8 -16
-32 -77 -55 -135 -23 -58 -46 -115 -52 -127 -10 -21 -4 -43 12 -43 10 0 25 30
70 140 99 243 113 281 104 290 -5 5 -14 6 -20 2z"/>
<path d="M2976 2514 c-9 -24 19 -31 114 -29 124 3 122 2 118 23 -3 15 -17 17
-115 18 -81 0 -114 -3 -117 -12z"/>
<path d="M3352 2520 c-24 -5 -29 -21 -9 -31 10 -6 190 -6 220 0 5 0 7 9 5 19
-3 15 -16 17 -98 17 -52 1 -105 -1 -118 -5z"/>
<path d="M3698 2522 c-21 -4 -24 -28 -5 -34 6 -3 64 -4 127 -4 108 1 115 2
115 21 0 19 -7 20 -110 20 -60 1 -118 -1 -127 -3z"/>
<path d="M2374 2509 c-7 -12 14 -97 29 -116 5 -7 7 -13 4 -13 -6 0 20 -100 53
-208 16 -53 26 -72 37 -70 9 2 35 49 60 108 25 58 46 106 48 108 2 2 8 -14 15
-35 22 -72 19 -68 36 -51 14 14 14 22 -4 84 -11 38 -23 82 -27 98 -6 27 -7 28
-19 10 -7 -10 -17 -30 -21 -44 -4 -14 -20 -52 -35 -85 -15 -33 -30 -70 -34
-82 -8 -25 -26 -31 -26 -9 0 16 -60 227 -68 241 -6 10 -8 15 -10 46 -2 20 -29
32 -38 18z"/>
<path d="M3806 2412 c-7 -12 11 -339 20 -354 3 -4 12 -8 21 -8 13 0 14 14 9
108 -8 144 -17 245 -23 255 -6 9 -21 9 -27 -1z"/>
<path d="M2081 2392 c-11 -20 3 -42 25 -42 20 0 87 -41 106 -64 38 -46 7 -135
-57 -162 -68 -28 -157 -10 -197 41 -22 28 -43 32 -52 10 -21 -55 78 -125 176
-125 59 0 132 36 161 78 70 104 45 200 -66 255 -66 32 -83 33 -96 9z"/>
<path d="M4165 2385 c-64 -31 -78 -43 -98 -82 -20 -37 -21 -63 -7 -115 39
-139 234 -185 343 -81 30 29 36 70 11 80 -10 4 -26 -6 -44 -26 -35 -37 -67
-51 -123 -51 -76 0 -147 61 -147 127 0 33 44 78 99 102 57 24 68 36 51 56 -17
20 -27 19 -85 -10z"/>
<path d="M2975 2330 c-15 -24 11 -30 121 -30 105 0 115 2 112 18 -3 15 -18 17
-115 20 -69 2 -114 -1 -118 -8z"/>
<path d="M3340 2320 c0 -19 6 -20 121 -20 109 0 120 2 117 18 -3 15 -18 17
-121 20 -112 3 -117 2 -117 -18z"/>
<path d="M2973 2122 c-25 -25 -2 -32 113 -32 94 0 116 3 121 15 3 9 2 19 -1
22 -4 4 -55 7 -113 8 -77 0 -110 -3 -120 -13z"/>
<path d="M3348 2129 c-6 -4 -8 -14 -5 -23 5 -13 25 -16 121 -16 114 0 142 8
117 33 -13 13 -214 17 -233 6z"/>
</g>
</svg>
